<svg version="1.1" xmlns="http://www.w3.org/2000/svg" xmlns:xlink="http://www.w3.org/1999/xlink" width="29.72728" height="29.09092" viewBox="0,0,29.72728,29.09092"><g transform="translate(-225.13636,-165.45454)"><g data-paper-data="{&quot;isPaintingLayer&quot;:true}" fill="none" fill-rule="nonzero" stroke-linejoin="miter" stroke-miterlimit="10" stroke-dasharray="" stroke-dashoffset="0" style="mix-blend-mode: normal"><path d="" data-paper-data="{&quot;index&quot;:null}" stroke="#000000" stroke-width="2" stroke-linecap="round"/><path d="" data-paper-data="{&quot;index&quot;:null}" stroke="#000000" stroke-width="3" stroke-linecap="round"/><path d="" data-paper-data="{&quot;index&quot;:null}" stroke="#000000" stroke-width="3" stroke-linecap="round"/><path d="M235.81818,179.04547c0,2.5606 -2.05542,4.63636 -4.59091,4.63636c-2.53549,0 -4.59091,-2.07577 -4.59091,-4.63636c0,-2.5606 2.05542,-4.63637 4.59091,-4.63637c2.53549,0 4.59091,2.07577 4.59091,4.63637z" stroke="#4169e1" stroke-width="3" stroke-linecap="butt"/><path d="M253.09092,188.4091c0,2.5606 -2.05542,4.63637 -4.59091,4.63637c-2.53549,0 -4.59091,-2.07577 -4.59091,-4.63637c0,-2.5606 2.05542,-4.63636 4.59091,-4.63636c2.53549,0 4.59091,2.07577 4.59091,4.63636z" stroke="#4169e1" stroke-width="3" stroke-linecap="butt"/><path d="M253.36364,171.59092c0,2.5606 -2.05542,4.63636 -4.59091,4.63636c-2.53549,0 -4.59091,-2.07577 -4.59091,-4.63636c0,-2.5606 2.05542,-4.63637 4.59091,-4.63637c2.53549,0 4.59091,2.07577 4.59091,4.63637z" stroke="#4169e1" stroke-width="3" stroke-linecap="butt"/><path d="M244.27415,172.27274l-8.09091,4.18182" stroke="#4169e1" stroke-width="3" stroke-linecap="round"/><path d="M235.45596,181.45456l7.45454,4.90909" stroke="#4169e1" stroke-width="3" stroke-linecap="round"/></g></g></svg>