<svg version="1.1" xmlns="http://www.w3.org/2000/svg" xmlns:xlink="http://www.w3.org/1999/xlink" width="27.26912" height="27.34994" viewBox="0,0,27.26912,27.34994"><g transform="translate(-226.21619,-166.31505)"><g data-paper-data="{&quot;isPaintingLayer&quot;:true}" fill="none" fill-rule="nonzero" stroke="#000000" stroke-width="2" stroke-linecap="round" stroke-linejoin="miter" stroke-miterlimit="10" stroke-dasharray="" stroke-dashoffset="0" style="mix-blend-mode: normal"><path d="" data-paper-data="{&quot;index&quot;:null}"/><path d="M240.14895,187.47665c0,0 -1.28018,1.30727 -2.29321,2.33746c-1.40571,1.42953 -2.52766,2.48404 -2.52766,2.48404l-7.66568,-7.08162l10.04304,-9.95338c0,0 1.30271,1.4311 2.15461,2.28289c0.86228,0.86217 2.60259,2.60227 2.60259,2.60227" data-paper-data="{&quot;index&quot;:null}"/><path d="M239.85105,172.52335c0,0 1.28018,-1.30727 2.29321,-2.33746c1.40571,-1.42953 2.52766,-2.48404 2.52766,-2.48404l7.39296,7.26343l-9.77031,9.77157c0,0 -1.30271,-1.4311 -2.15461,-2.28289c-0.86228,-0.86217 -2.60259,-2.60227 -2.60259,-2.60227" data-paper-data="{&quot;index&quot;:null}"/></g></g></svg>