<svg version="1.1" xmlns="http://www.w3.org/2000/svg" xmlns:xlink="http://www.w3.org/1999/xlink" width="27.13938" height="32.12116" viewBox="0,0,27.13938,32.12116"><g transform="translate(-226.43032,-164.16439)"><g data-paper-data="{&quot;isPaintingLayer&quot;:true}" fill-rule="nonzero" stroke-linejoin="miter" stroke-miterlimit="10" stroke-dasharray="" stroke-dashoffset="0" style="mix-blend-mode: normal"><path d="M251.11941,182.68891c0,6.40464 -5.07912,11.59664 -11.34454,11.59664c-6.26541,0 -11.34454,-5.19199 -11.34454,-11.59664c0,-6.40464 5.07912,-11.59664 11.34454,-11.59664c6.26541,0 11.34454,5.19199 11.34454,11.59664z" fill="none" stroke="#4169e1" stroke-width="4" stroke-linecap="butt"/><path d="M253.56806,175.06214c0.00621,0.13261 -0.00525,0.27842 -0.03278,0.43458c-0.03691,0.31423 -0.13211,0.61064 -0.27448,0.87812c-1.004,2.36199 -4.22575,5.62527 -6.23143,3.61959c-0.59384,-0.59384 -1.25,-1.34768 -1.25,-2.1875c0,-0.156 0.02777,-0.29985 0.07805,-0.43398c-0.03055,-0.12258 -0.04802,-0.25336 -0.05063,-0.39254c-0.35208,0.06953 -0.49857,0.34627 -0.98519,0.02509c-3.15379,-2.08158 -4.71241,-3.80623 0.0229,-6.51213c0.3729,-0.21309 -0.68477,-1.83015 -0.2626,-1.90914c1.27244,-0.23808 1.60969,0.25143 1.98215,0.84356c0.16467,-0.13377 0.35711,-0.27464 0.58068,-0.42368c2.38631,-1.59087 4.70075,1.58199 4.81151,3.86612c0.79951,0.31011 1.39986,1.01959 1.55621,1.88359c0.03131,0.09689 0.05052,0.19936 0.05562,0.30831z" fill="#ffffff" stroke="none" stroke-width="0" stroke-linecap="butt"/><path d="" data-paper-data="{&quot;index&quot;:null}" fill="none" stroke="#000000" stroke-width="2" stroke-linecap="round"/><path d="" data-paper-data="{&quot;index&quot;:null}" fill="none" stroke="#000000" stroke-width="3" stroke-linecap="round"/><path d="" data-paper-data="{&quot;index&quot;:null}" fill="none" stroke="#000000" stroke-width="3" stroke-linecap="round"/><path d="M244.42237,171.42277" fill="none" stroke="#4169e1" stroke-width="3" stroke-linecap="round"/><path d="M238.69857,176.67294l5.90076,-4.25878" fill="none" stroke="#4169e1" stroke-width="3.5" stroke-linecap="round"/><path d="M248.12703,177.41594c0,-1.10457 0.89543,-2 2,-2c1.02934,0 1.87707,0.77762 1.98776,1.77745c0.27659,0.34307 0.44217,0.77938 0.44217,1.25436c0,0.07942 -0.00463,0.15777 -0.01363,0.23477c0.06465,0.19666 0.09962,0.40678 0.09962,0.62507c0,1.10457 -0.89543,2 -2,2c-1.10457,0 -2,-0.89543 -2,-2c0,-0.07942 0.00463,-0.15777 0.01363,-0.23477c-0.04237,-0.12889 -0.07199,-0.26356 -0.08738,-0.40252c-0.27659,-0.34307 -0.44217,-0.77938 -0.44217,-1.25436z" fill="#4169e1" stroke="#4169e1" stroke-width="0.5" stroke-linecap="butt"/><path d="M240.48798,165.91439l4.28735,6.33068" fill="none" stroke="#4169e1" stroke-width="3.5" stroke-linecap="round"/></g></g></svg>