<svg version="1.1" xmlns="http://www.w3.org/2000/svg" xmlns:xlink="http://www.w3.org/1999/xlink" width="7.74598" height="7.16225" viewBox="0,0,7.74598,7.16225"><g transform="translate(-236.61,-176.20775)"><g data-paper-data="{&quot;isPaintingLayer&quot;:true}" fill-rule="nonzero" stroke-width="0.5" stroke-linejoin="miter" stroke-miterlimit="10" stroke-dasharray="" stroke-dashoffset="0" style="mix-blend-mode: normal"><path d="" fill="none" stroke="#000000" stroke-linecap="round"/><path d="" fill="none" stroke="#000000" stroke-linecap="round"/><path d="" data-paper-data="{&quot;index&quot;:null}" fill="none" stroke="#000000" stroke-linecap="round"/><path d="" fill="none" stroke="#000000" stroke-linecap="round"/><path d="" data-paper-data="{&quot;index&quot;:null}" fill="none" stroke="#000000" stroke-linecap="round"/><path d="M243.14,180c0,1.72313 -1.40582,3.12 -3.14,3.12c-1.73417,0 -3.14,-1.39687 -3.14,-3.12c0,-1.72313 1.40582,-3.12 3.14,-3.12c1.73417,0 3.14,1.39687 3.14,3.12z" fill="#ffffff" stroke="#000000" stroke-linecap="butt"/><path d="M244.25472,179.66841c0.63347,2.53387 -1.89622,1.03422 -2.30193,-0.9943c-0.01537,-0.06967 -0.02347,-0.14207 -0.02347,-0.21636c0,-0.12859 0.02427,-0.25151 0.06848,-0.36443c0.19289,-0.81215 0.5414,-0.89303 0.90902,-0.63533c0.00748,-0.00017 0.01498,-0.00025 0.0225,-0.00025c0.55228,0 1,0.44772 1,1c0,0.10534 -0.01629,0.20687 -0.04648,0.30221c0.18064,0.34992 0.3165,0.68697 0.37187,0.90845z" fill="#ffffff" stroke="none" stroke-linecap="butt"/><path d="M240.76933,177.93775l1.52,-0.12l-0.32,-1.36" fill="none" stroke="#000000" stroke-linecap="round"/></g></g></svg>