<svg version="1.1" xmlns="http://www.w3.org/2000/svg" xmlns:xlink="http://www.w3.org/1999/xlink" width="330.99033" height="106.25674" viewBox="0,0,330.99033,106.25674"><g transform="translate(-74.40133,-126.49663)"><g data-paper-data="{&quot;isPaintingLayer&quot;:true}" fill-rule="nonzero" stroke="#4169e1" stroke-linejoin="miter" stroke-miterlimit="10" stroke-dasharray="" stroke-dashoffset="0" style="mix-blend-mode: normal"><path d="M103.70885,212.43137c0,0 0.97772,-5.19453 2.2911,-7.31912c1.13251,-1.83201 5.12728,-4.6812 5.12728,-4.6812l6.32744,-1.52732h5.45469l5.89106,2.40007l4.36375,2.40006c0,0 1.86197,1.69956 2.71323,2.69269c0.8923,1.04102 2.52328,3.41656 2.52328,3.41656l0.87275,5.45469l-0.43637,4.36375l1.62725,1.04253l19.10058,2.66666c0,0 1.80102,0.33331 3.6206,0.77382c2.22843,0.53949 4.59377,1.23976 5.05974,1.68547c0.5169,0.49443 0.70916,1.91512 -0.21683,2.90877c-0.55336,0.59381 -2.36325,1.03511 -2.36325,1.03511l-54.75611,1.66977l-3.49101,-2.83644l-3.27281,-4.80013l-0.65457,-4.80013z" fill="none" stroke-width="2" stroke-linecap="round"/><path d="M105.49065,206.91368l3.66667,-7.5l2,-3.5l7.66666,-11.33333l4.66667,-5.66667l3.83333,-4.5l2,-2.33333l1.16667,-3.16667l0.83333,-3.5v-1.66667l-0.5,-2.5l-0.83333,-4l0.33333,-2.83333l2,-4.83333c0,0 2.00677,-3.30787 3.30627,-4.41786c1.36404,-1.16512 4.69373,-2.41548 4.69373,-2.41548h4.66667l6,1.83334l4.16666,2.83333l4,1.33333l7,0.66667l4.33334,-0.66667l6.5,-1.16666l4,0.33333c0,0 0.81275,1.14687 0.9578,1.75608c0.13137,0.55176 -0.12447,1.74392 -0.12447,1.74392l-2.33333,2.83333c0,0 -1.31199,2.73538 -2.44036,3.94838c-1.09271,1.17466 -4.22631,3.21829 -4.22631,3.21829c0,0 -3.41347,2.57495 -5.27468,3.72031c-1.742,1.072 -5.55865,2.94635 -5.55865,2.94635c0,0 -7.25196,3.02436 -9.16012,7.16968c-0.68755,1.49365 -1.17321,5.16365 -1.17321,5.16365l-0.33334,4.16667l-0.49999,7.83333l0.16666,6.33333l-0.5,5.66667l-0.99999,3.66667c0,0 -1.84114,3.11785 -2.60244,4.61118c-0.67195,1.31807 -2.39757,3.38882 -2.39757,3.38882l-5.66666,5" fill="none" stroke-width="2" stroke-linecap="round"/><path d="M139.49422,142.55896c-0.21949,0.87706 -1.98812,1.28123 -2.68232,2.14792c-1.1653,1.45486 -3.98629,3.03301 -5.44445,5.09163c-1.11705,1.57704 -0.88329,3.7869 -1.80838,4.32818c-2.73522,1.60039 -2.74597,1.28592 -6.04631,0.45997c-6.74167,-1.68717 -10.82491,-8.57703 -9.12016,-15.38893c1.70475,-6.8119 8.55193,-10.96631 15.2936,-9.27913c6.74167,1.68717 11.51276,5.82846 9.80802,12.64036z" fill="none" stroke-width="2" stroke-linecap="butt"/><path d="M185.49065,148.92232c0,2.09265 -1.67893,3.78906 -3.75,3.78906c-2.07107,0 -3.74999,-1.69641 -3.74999,-3.78906c0,-2.09265 1.67893,-3.78907 3.74999,-3.78907c2.07107,0 3.75,1.69642 3.75,3.78907z" fill="#4169e1" stroke-width="2" stroke-linecap="butt"/><path d="M169.82428,178.26842c1.55007,2.5736 0.6198,5.97706 -2.07782,7.60183c-2.69762,1.62478 -6.14108,0.85561 -7.69115,-1.71799c-1.55007,-2.5736 -0.6198,-5.97706 2.07782,-7.60183c2.69762,-1.62478 6.14107,-0.85561 7.69115,1.71799z" fill="none" stroke-width="1.5" stroke-linecap="butt"/><path d="M171.02834,177.47286c1.90642,3.16523 0.76229,7.35109 -2.55548,9.34939c-3.31777,1.9983 -7.55281,1.0523 -9.45923,-2.11293c-1.90642,-3.16523 -0.76229,-7.35109 2.55548,-9.34938c3.31777,-1.9983 7.55281,-1.05231 9.45923,2.11292z" fill="none" stroke-width="1.5" stroke-linecap="butt"/><path d="M162.06571,187.65954l-4.86267,9.20264l-1.58991,-0.77663l5.11702,-9.45785" fill="none" stroke-width="2" stroke-linecap="round"/><path d="M111.15736,231.4218l-14.19048,-1.61905c0,0 -5.19804,-1.07232 -9.2437,-3.01433c-3.42016,-1.64175 -5.56022,-3.90506 -7.71676,-6.66751c-2.04405,-2.61836 -3.87287,-8.72293 -3.87287,-8.72293c0,0 -0.51635,-2.70902 -0.73566,-5.34838c-0.10817,-1.30187 0.04509,-2.58679 -0.00259,-3.52129c-0.13241,-2.59517 0.6192,-7.46366 0.6192,-7.46366c0,0 0.92959,-8.51973 3.00922,-13.51076c0.63801,-1.53121 1.52449,-3.02079 2.87704,-4.58468c0.27306,-0.31573 1.00692,-1.64146 2.02271,-2.87073c1.49701,-1.81163 3.37197,-3.64813 3.37197,-3.64813c0,0 2.92023,-2.09531 3.42826,-1.76659c0.19058,0.12333 1.58902,0.38101 0.87611,1.93443c-0.85538,1.86384 -4.27104,7.06549 -4.27104,7.06549l-2.48095,6.35715l-2,8.19047l0.16667,9.80953l1.85714,9.35714c0,0 0.98493,3.02043 2.21064,4.33165c2.0873,2.23294 3.55973,3.86246 6.61145,4.0352c1.40323,0.07943 4.32077,-0.20018 4.32077,-0.20018l5.5,-2.33334" fill="none" stroke-width="2" stroke-linecap="round"/><path d="M150.72714,190.7616l5.25,-0.5c0,0 1.55167,0.33435 2.15326,0.629c0.56245,0.27549 1.34674,1.08528 1.34674,1.08528" fill="none" stroke-width="2" stroke-linecap="round"/><path d="M159.79857,191.65445c0,0 1.05359,1.89291 1.35302,3.0051c0.28296,1.05102 -0.31731,3.06633 -0.31731,3.06633c0,0 -1.66945,2.06417 -2.67723,2.45681c-0.58726,0.2288 -2.90849,1.11462 -2.90849,1.11462l-4.45,-0.14285" fill="none" stroke-width="2" stroke-linecap="round"/><path d="M147.9617,155.24205c0,1.65686 -1.40711,3 -3.14285,3c-1.73575,0 -3.14286,-1.34314 -3.14286,-3c0,-1.65686 1.40711,-3 3.14286,-3c1.73575,0 3.14285,1.34314 3.14285,3z" fill="#4169e1" stroke-width="2" stroke-linecap="butt"/><path d="M134.67597,130.93158l3,-1.85714c0,0 2.69661,-1.90645 4.27662,-1.52813c0.85445,0.20458 2.95777,0.25799 4.7042,0.67373c1.88687,0.44917 3.5906,1.8544 3.5906,1.8544c0,0 2.711,3.61357 2.79333,5.23963c0.03943,0.77874 0.62674,2.34274 0.45461,3.97933c-0.27896,2.65234 -1.39079,5.49532 -1.39079,5.49532" fill="none" stroke-width="2" stroke-linecap="round"/><path d="M219.21333,142.97128l6.59325,11.18278l31.20882,1.75372l0.91791,32.20882h-55.53333l0.50248,-45.47989z" fill="#4169e1" stroke-width="2.5" stroke-linecap="round"/><text transform="translate(174.46665,226.50337) scale(0.5,0.5)" font-size="40" xml:space="preserve" fill="#4169e1" fill-rule="nonzero" stroke="#4169e1" stroke-width="1" stroke-linecap="butt" stroke-linejoin="miter" stroke-miterlimit="10" stroke-dasharray="" stroke-dashoffset="0" font-family="Sans Serif" font-weight="normal" text-anchor="start" style="mix-blend-mode: normal"><tspan x="0" dy="0">projeto não selecionado</tspan></text></g></g></svg>