<svg version="1.1" xmlns="http://www.w3.org/2000/svg" xmlns:xlink="http://www.w3.org/1999/xlink" width="27.09387" height="28.62426" viewBox="0,0,27.09387,28.62426"><g transform="translate(-227.41666,-164.83407)"><g data-paper-data="{&quot;isPaintingLayer&quot;:true}" fill="none" fill-rule="nonzero" stroke-linejoin="miter" stroke-miterlimit="10" stroke-dasharray="" stroke-dashoffset="0" style="mix-blend-mode: normal"><path d="M251.08333,180c0,6.6044 -4.96218,11.95834 -11.08334,11.95834c-6.12115,0 -11.08333,-5.35393 -11.08333,-11.95834c0,-6.6044 4.96218,-11.95834 11.08333,-11.95834c6.12115,0 11.08334,5.35393 11.08334,11.95834z" stroke="#4169e1" stroke-width="3" stroke-linecap="butt"/><path d="M240.36884,167.95833l1.66667,0.16667l2.58333,0.83333l2.5,1.83333l1.91667,2.16667l1.16667,1.83333l0.5,2.5l0.16667,1.66667" stroke="#ffffff" stroke-width="3.5" stroke-linecap="round"/><path d="M246.9546,166.08407c0,0 0.24312,6.70622 0.32421,8.94271c0.04866,1.34267 0.11684,3.22308 0.11684,3.22308" stroke="#4169e1" stroke-width="2.5" stroke-linecap="round"/><path d="M241.08972,172.30163c0,0 6.70901,-0.14846 8.94641,-0.19796c1.34322,-0.02972 3.2244,-0.07133 3.2244,-0.07133" stroke="#4169e1" stroke-width="2.5" stroke-linecap="round"/></g></g></svg>