<svg version="1.1" xmlns="http://www.w3.org/2000/svg" xmlns:xlink="http://www.w3.org/1999/xlink" width="25.20219" height="28.25001" viewBox="0,0,25.20219,28.25001"><g transform="translate(-227.41666,-165.20833)"><g data-paper-data="{&quot;isPaintingLayer&quot;:true}" fill="none" fill-rule="nonzero" stroke-linejoin="miter" stroke-miterlimit="10" stroke-dasharray="" stroke-dashoffset="0" style="mix-blend-mode: normal"><path d="M251.08333,180c0,6.6044 -4.96218,11.95834 -11.08334,11.95834c-6.12115,0 -11.08333,-5.35393 -11.08333,-11.95834c0,-6.6044 4.96218,-11.95834 11.08333,-11.95834c6.12115,0 11.08334,5.35393 11.08334,11.95834z" stroke="#4169e1" stroke-width="3" stroke-linecap="butt"/><path d="M240.36884,167.95833l1.66667,0.16667l2.58333,0.83333l2.5,1.83333l1.91667,2.16667l1.16667,1.83333l0.5,2.5l0.16667,1.66667" stroke="#ffffff" stroke-width="3.5" stroke-linecap="round"/><path d="M243.61884,166.20834l5.25,0.16666c0,0 0.6121,0.88223 0.84231,1.17821c0.32184,0.4138 0.99102,1.57179 0.99102,1.57179l0.08333,7.33334h-7.08333l-0.08334,-10.25001" stroke="#4169e1" stroke-width="2" stroke-linecap="round"/></g></g></svg>