<svg version="1.1" xmlns="http://www.w3.org/2000/svg" xmlns:xlink="http://www.w3.org/1999/xlink" width="30.01468" height="28.56251" viewBox="0,0,30.01468,28.56251"><g transform="translate(-226.41667,-164.89586)"><g data-paper-data="{&quot;isPaintingLayer&quot;:true}" fill="none" fill-rule="nonzero" stroke-linejoin="miter" stroke-miterlimit="10" stroke-dasharray="" stroke-dashoffset="0" style="mix-blend-mode: normal"><path d="M252.02451,180.00003c0,6.6044 -5.39673,11.95834 -12.05392,11.95834c-6.65719,0 -12.05392,-5.35393 -12.05392,-11.95834c0,-6.6044 5.39673,-11.95834 12.05392,-11.95834c6.65719,0 12.05392,5.35393 12.05392,11.95834z" stroke="#4169e1" stroke-width="3" stroke-linecap="butt"/><path d="M241.43134,167.14586l0.04167,1.91667c0,0 1.31958,-0.49786 1.91692,-0.55589c0.61728,-0.05997 1.72891,0.20172 1.72891,0.20172l2.5,1.83333l1.91667,2.16667l1.16667,1.83333c0,0 0.41856,1.29027 0.32304,1.9165c-0.09183,0.60199 -0.88554,1.771 -0.88554,1.771l4.04167,0.04167" stroke="#ffffff" stroke-width="4.5" stroke-linecap="round"/><path d="M251.63651,175.55283c0,0 -1.17173,-1.0745 -2.00835,-1.84174c-1.3936,-1.27797 -5.57235,-5.11007 -5.57235,-5.11007" stroke="#4169e1" stroke-width="2" stroke-linecap="round"/><path d="M244.3432,175.78949c0,0 3.86192,-4.09301 5.14983,-5.458c0.77319,-0.81947 1.85607,-1.96713 1.85607,-1.96713" stroke="#4169e1" stroke-width="2" stroke-linecap="round"/></g></g></svg>